Normalized EMG Linear Envelopes
nRows=116
nColumns=4

endheader
time	 med_gas_r	  soleus_r	 tib_ant_r	
3.36391	  0.079151	  0.067391	  0.022549	
3.43548	  0.081417	  0.062191	  0.023258	
3.50706	  0.084806	  0.063302	  0.023082	
3.57863	  0.089166	  0.072391	  0.022070	
3.6502	  0.092255	  0.082124	  0.021683	
3.72177	  0.091914	  0.088357	  0.021991	
3.79335	  0.092083	  0.090716	  0.022571	
3.86492	  0.094200	  0.088037	  0.022222	
3.93649	  0.092434	  0.081986	  0.021858	
4.00806	  0.086700	  0.072221	  0.022760	
4.07964	  0.084979	  0.065342	  0.024313	
4.15121	  0.090923	  0.065090	  0.024896	
4.22278	  0.098119	  0.067871	  0.024409	
4.29435	  0.099048	  0.069119	  0.023455	
4.36593	  0.094209	  0.072157	  0.022100	
4.4375	  0.089128	  0.076057	  0.020828	
4.50907	  0.087391	  0.076072	  0.020253	
4.58065	  0.088715	  0.071205	  0.020006	
4.65222	  0.087131	  0.067919	  0.019762	
4.72379	  0.084090	  0.065979	  0.020367	
4.79536	  0.083147	  0.063275	  0.021689	
4.86694	  0.082980	  0.061837	  0.023436	
4.93851	  0.082564	  0.063159	  0.025375	
5.01008	  0.081860	  0.064302	  0.026591	
5.08165	  0.081173	  0.064997	  0.026872	
5.15323	  0.082052	  0.067305	  0.025806	
5.2248	  0.083156	  0.068559	  0.024696	
5.29637	  0.082524	  0.067947	  0.025594	
5.36794	  0.080995	  0.066290	  0.027890	
5.43952	  0.080088	  0.064814	  0.029736	
5.51109	  0.082479	  0.065668	  0.030729	
5.58266	  0.087075	  0.066450	  0.029808	
5.65423	  0.089477	  0.067069	  0.027394	
5.72581	  0.088453	  0.068131	  0.025097	
5.79738	  0.082388	  0.069014	  0.023189	
5.86895	  0.072499	  0.072651	  0.022434	
5.94052	  0.073195	  0.081409	  0.025605	
6.0121	  0.111054	  0.099776	  0.034963	
6.08367	  0.214954	  0.137905	  0.052730	
6.15524	  0.382574	  0.205924	  0.077595	
6.22681	  0.536186	  0.281651	  0.101663	
6.29839	  0.600385	  0.338275	  0.114288	
6.36996	  0.608855	  0.372680	  0.117025	
6.44153	  0.606491	  0.393542	  0.117132	
6.5131	  0.624850	  0.407929	  0.117408	
6.58468	  0.651608	  0.416706	  0.116587	
6.65625	  0.681035	  0.413686	  0.115188	
6.72782	  0.719381	  0.411493	  0.116323	
6.7994	  0.762950	  0.421306	  0.119255	
6.87097	  0.783293	  0.429208	  0.121813	
6.94254	  0.763109	  0.423092	  0.122312	
7.01411	  0.716458	  0.407786	  0.124062	
7.08569	  0.688774	  0.412845	  0.128587	
7.15726	  0.686173	  0.433428	  0.134872	
7.22883	  0.689184	  0.459738	  0.139786	
7.3004	  0.702189	  0.485233	  0.143812	
7.37198	  0.719509	  0.501336	  0.142422	
7.44355	  0.736143	  0.507485	  0.134969	
7.51512	  0.747305	  0.512314	  0.128567	
7.58669	  0.767048	  0.513953	  0.126730	
7.65827	  0.771928	  0.515403	  0.129867	
7.72984	  0.767880	  0.524413	  0.134820	
7.80141	  0.762906	  0.537502	  0.138378	
7.87298	  0.741451	  0.542618	  0.138419	
7.94456	  0.711443	  0.523823	  0.135686	
8.01613	  0.680457	  0.488843	  0.131856	
8.0877	  0.647534	  0.467378	  0.127285	
8.15927	  0.624839	  0.470652	  0.121697	
8.23085	  0.617662	  0.474217	  0.117708	
8.30242	  0.625895	  0.470276	  0.117825	
8.37399	  0.644551	  0.458805	  0.119984	
8.44556	  0.640181	  0.440339	  0.119660	
8.51714	  0.625759	  0.419404	  0.118248	
8.58871	  0.624329	  0.397614	  0.117744	
8.66028	  0.634117	  0.382492	  0.118016	
8.73185	  0.635163	  0.371493	  0.118653	
8.80343	  0.620518	  0.363994	  0.121082	
8.875	  0.598001	  0.359442	  0.122749	
8.94657	  0.582961	  0.356529	  0.119621	
9.01815	  0.572908	  0.356340	  0.112560	
9.08972	  0.562735	  0.356589	  0.104950	
9.16129	  0.560641	  0.349891	  0.101001	
9.23286	  0.569105	  0.347293	  0.103779	
9.30444	  0.585663	  0.359106	  0.109602	
9.37601	  0.622278	  0.379756	  0.114551	
9.44758	  0.666724	  0.403045	  0.115350	
9.51915	  0.688871	  0.432366	  0.113866	
9.59073	  0.684252	  0.453745	  0.114375	
9.6623	  0.659989	  0.445023	  0.117164	
9.73387	  0.643857	  0.418392	  0.120368	
9.80544	  0.629389	  0.384047	  0.119787	
9.87702	  0.597720	  0.341921	  0.114397	
9.94859	  0.526170	  0.295508	  0.103949	
10.0202	  0.419650	  0.249785	  0.088993	
10.0917	  0.305695	  0.205516	  0.073181	
10.1633	  0.220609	  0.166946	  0.063526	
10.2349	  0.162898	  0.134559	  0.064352	
10.3065	  0.130531	  0.113111	  0.072727	
10.378	  0.113472	  0.098819	  0.077055	
10.4496	  0.097234	  0.089140	  0.070987	
10.5212	  0.085325	  0.088563	  0.065424	
10.5927	  0.081875	  0.095983	  0.065607	
10.6643	  0.085514	  0.102354	  0.068175	
10.7359	  0.091486	  0.101875	  0.068472	
10.8075	  0.095186	  0.094179	  0.061282	
10.879	  0.095834	  0.085111	  0.050623	
10.9506	  0.093114	  0.080600	  0.040817	
11.0222	  0.087658	  0.078850	  0.035187	
11.0937	  0.081639	  0.074449	  0.034748	
11.1653	  0.078986	  0.067620	  0.034207	
11.2369	  0.081871	  0.062996	  0.029943	
11.3085	  0.087595	  0.059641	  0.024924	
11.38	  0.091201	  0.058937	  0.022313	
11.4516	  0.089440	  0.061575	  0.022683	
11.5232	  0.085482	  0.066080	  0.024533	
11.5948	  0.082686	  0.069510	  0.026554	
